# xmcd CD database file
#
# Track frame offsets:
#	150
#	2622
#	11723
#	20886
#	44621
#	68307
#	75699
#	83171
#	95574
#	108342
#	119619
#	130751
#	138376
#	145792
#	160132
#	174267
#	182523
#	190610
#	198305
#	205782
#	216814
#	228001
#	237866
#	247421
#	257841
#
# Disc length: 3573 seconds
#
# Revision: 0
# Processed by: cddbd v1.5.2PL0 Copyright (c) Steve Scherf et al.
# Submitted via: CDex 1.51
#
DISCID=510df319
DTITLE=Jack WIlkins - Mel Bay - Essential Jazz Etudes - The Blues
DYEAR=1900
DGENRE=Jazz
TTITLE0=Tuning
TTITLE1=Blue Sax
TTITLE2=Blue Sax - Rhythm Only
TTITLE3=Bridge Over Muddy Waters
TTITLE4=Bridge Over Muddy Waters  Rhythm Only
TTITLE5=Big Blue Swing
TTITLE6=Big Blue Swing - Rhythm Only
TTITLE7=Slo' Mo' Blues
TTITLE8=Slo' Mo' Blues Rhythm Only
TTITLE9=Too Sharp Blues
TTITLE10=Too Sharp Blues - Rhythm Only
TTITLE11=Bossa Blues
TTITLE12=Bossa Blues - Rhythm Only
TTITLE13=Big Beat Blues
TTITLE14=Big Bleat Blues - Rhythm Only
TTITLE15=Blue Caboose
TTITLE16=Blue Caboose - Rhythm
TTITLE17=BeBooppin' Alice
TTITLE18=BeBoopin' Alice - Rhythm
TTITLE19=Bouncing Blues
TTITLE20=Bouncing Blues - Rhythm
TTITLE21=Ursa Minor Blues
TTITLE22=Ursa Minor Blues - Rhythm
TTITLE23=Blues News
TTITLE24=Blues News - Rhythm
EXTD=
EXTT0=
EXTT1=
EXTT2=
EXTT3=
EXTT4=
EXTT5=
EXTT6=
EXTT7=
EXTT8=
EXTT9=
EXTT10=
EXTT11=
EXTT12=
EXTT13=
EXTT14=
EXTT15=
EXTT16=
EXTT17=
EXTT18=
EXTT19=
EXTT20=
EXTT21=
EXTT22=
EXTT23=
EXTT24=
PLAYORDER=
